# xmcd
#
# Track frame offsets:
#	150
#	23000
#	44595
#	66187
#	92332
#	109515
#	141592
#	159905
#	191185
#	212137
#	225242
#
# Disc length: 3269 seconds
# Revision: 6
# Processed by: cddbd v1.5.2PL0 Copyright (c) Steve Scherf et al.
# Submitted via: dBpowerAMP V12.0
#
DISCID=8f0cc30b
DTITLE=Mighty Sam McClain - Keep on Movin'
DYEAR=1995
DGENRE=Soul
TTITLE0=Can You Stand The Test of Love
TTITLE1=I'm so Lonely
TTITLE2=Lord Will Make a Way
TTITLE3=Who Made You Cry
TTITLE4=Hold on to The Dream
TTITLE5=Don't Worry About me
TTITLE6=Keep on Movin'
TTITLE7=A Soul That's Been Abused
TTITLE8=I'm Sorry
TTITLE9=Let's Have Some Fun
TTITLE10=This is All I Have to Say
EXTD=
EXTT0=
EXTT1=
EXTT2=
EXTT3=
EXTT4=
EXTT5=
EXTT6=
EXTT7=
EXTT8=
EXTT9=
EXTT10=
PLAYORDER=
